PathFileType	4	(X/Y/Z)	 staticP082.trc
DataRate	CameraRate	NumFrames	NumMarkers	Units	OrigDataRate	OrigDataStartFrame	OrigNumFrames
100	100	7	53	M	100	38	100
Frame#	Time	RM1D			RM5D			RM2B			LM1D			LM5D			LM2B			RCAL			LCAL			RLMAL			LLMAL			RMMAL			LMMAL			RSTL			LSTL			RFLE			RFME			LFME			LFLE			RHFIB			LHFIB			RTTUB			LTTUB			RSSH			LSSH			RTL			LTL			RTAP			RTAD			LTAP			LTAD			RTPP			RTPD			LTPP			LTPD			RPSIS			LPSIS			RASIS			LASIS			T10			T2			IJ			SA			RACR			LACR			RHLE			LHLE			RUSP			LUSP			RCB			LCB			IN			LHME			RHME			
		X1	Y1	Z1	X2	Y2	Z2	X3	Y3	Z3	X4	Y4	Z4	X5	Y5	Z5	X6	Y6	Z6	X7	Y7	Z7	X8	Y8	Z8	X9	Y9	Z9	X10	Y10	Z10	X11	Y11	Z11	X12	Y12	Z12	X13	Y13	Z13	X14	Y14	Z14	X15	Y15	Z15	X16	Y16	Z16	X17	Y17	Z17	X18	Y18	Z18	X19	Y19	Z19	X20	Y20	Z20	X21	Y21	Z21	X22	Y22	Z22	X23	Y23	Z23	X24	Y24	Z24	X25	Y25	Z25	X26	Y26	Z26	X27	Y27	Z27	X28	Y28	Z28	X29	Y29	Z29	X30	Y30	Z30	X31	Y31	Z31	X32	Y32	Z32	X33	Y33	Z33	X34	Y34	Z34	X35	Y35	Z35	X36	Y36	Z36	X37	Y37	Z37	X38	Y38	Z38	X39	Y39	Z39	X40	Y40	Z40	X41	Y41	Z41	X42	Y42	Z42	X43	Y43	Z43	X44	Y44	Z44	X45	Y45	Z45	X46	Y46	Z46	X47	Y47	Z47	X48	Y48	Z48	X49	Y49	Z49	X50	Y50	Z50	X51	Y51	Z51	X52	Y52	Z52	X53	Y53	Z53	
38	0.3800	-0.249139	0.039383	-0.202590	-0.282259	0.027698	-0.114430	-0.294585	0.058295	-0.165347	-0.262404	0.041140	-0.280816	-0.286233	0.024244	-0.369287	-0.294207	0.053673	-0.315889	-0.461265	0.049564	-0.174128	-0.467366	0.047742	-0.318417	-0.407955	0.072377	-0.129845	-0.407088	0.069404	-0.356611	-0.391099	0.084008	-0.213405	-0.400475	0.086532	-0.272464	-0.408715	0.047497	-0.208119	-0.418322	0.042870	-0.280194	-0.344311	0.470817	-0.088654	-0.373528	0.485623	-0.212114	-0.381840	0.468816	-0.271430	-0.328499	0.478213	-0.386096	-0.368592	0.422137	-0.076127	-0.364331	0.421579	-0.408280	-0.331823	0.402877	-0.154578	-0.327045	0.403707	-0.331061	-0.339936	0.317768	-0.156551	-0.349592	0.181605	-0.321478	-0.328555	0.700541	-0.045268	-0.323168	0.703239	-0.433658	-0.229104	0.768300	-0.128741	-0.247151	0.655322	-0.140373	-0.226917	0.760265	-0.346684	-0.248379	0.641436	-0.340620	-0.446374	0.691474	-0.135855	-0.442207	0.603330	-0.137394	-0.436744	0.698380	-0.367588	-0.435325	0.607997	-0.363116	-0.459186	1.029405	-0.202948	-0.461503	1.026182	-0.299636	-0.253488	0.983016	-0.116656	-0.258197	0.977173	-0.370778	-0.468272	1.219920	-0.248632	-0.444140	1.467099	-0.259992	-0.292414	1.411030	-0.241295	-0.272007	1.364758	-0.238271	-0.354626	1.463744	-0.046762	-0.317116	1.446734	-0.445192	-0.418362	1.132105	-0.020436	-0.374429	1.114137	-0.463496	-0.330445	0.897445	0.033364	-0.305680	0.884997	-0.506814	-0.244526	1.586700	-0.178395	-0.233988	1.582435	-0.311603	-0.399805	1.541501	-0.258433	-0.385698	1.122384	-0.390611	-0.419771	1.130145	-0.102544	
39	0.3900	-0.249105	0.039373	-0.202570	-0.282261	0.027719	-0.114430	-0.294598	0.058296	-0.165347	-0.262402	0.041142	-0.280808	-0.286245	0.024258	-0.369293	-0.294211	0.053681	-0.315903	-0.461263	0.049573	-0.174152	-0.467366	0.047736	-0.318415	-0.407959	0.072395	-0.129836	-0.407104	0.069422	-0.356633	-0.391133	0.084009	-0.213417	-0.400456	0.086517	-0.272448	-0.408704	0.047491	-0.208139	-0.418344	0.042872	-0.280211	-0.344322	0.470810	-0.088661	-0.373558	0.485608	-0.212117	-0.381851	0.468811	-0.271412	-0.328499	0.478183	-0.386085	-0.368597	0.422135	-0.076127	-0.364331	0.421572	-0.408256	-0.331817	0.402879	-0.154585	-0.327074	0.403696	-0.331043	-0.339949	0.317750	-0.156546	-0.349568	0.181606	-0.321472	-0.328563	0.700539	-0.045233	-0.323100	0.703248	-0.433654	-0.229121	0.768294	-0.128714	-0.247185	0.655317	-0.140349	-0.226970	0.760263	-0.346680	-0.248444	0.641427	-0.340624	-0.446391	0.691484	-0.135845	-0.442231	0.603329	-0.137371	-0.436746	0.698391	-0.367571	-0.435320	0.608001	-0.363097	-0.459187	1.029416	-0.202937	-0.461499	1.026174	-0.299637	-0.253469	0.983004	-0.116625	-0.258216	0.977173	-0.370753	-0.468251	1.219940	-0.248618	-0.444104	1.467123	-0.259966	-0.292412	1.411017	-0.241300	-0.271921	1.364697	-0.238265	-0.354561	1.463763	-0.046687	-0.317082	1.446763	-0.445177	-0.418340	1.132124	-0.020542	-0.374393	1.114162	-0.463522	-0.330437	0.897423	0.033196	-0.305705	0.885019	-0.506815	-0.244360	1.586667	-0.178374	-0.233919	1.582386	-0.311580	-0.399720	1.541527	-0.258392	-0.385688	1.122394	-0.390611	-0.419735	1.130181	-0.102638	
40	0.4000	-0.249117	0.039380	-0.202565	-0.282243	0.027711	-0.114446	-0.294590	0.058308	-0.165325	-0.262412	0.041135	-0.280798	-0.286265	0.024241	-0.369293	-0.294203	0.053692	-0.315907	-0.461278	0.049584	-0.174150	-0.467361	0.047754	-0.318414	-0.407960	0.072382	-0.129854	-0.407108	0.069423	-0.356627	-0.391100	0.084013	-0.213408	-0.400448	0.086540	-0.272452	-0.408701	0.047496	-0.208132	-0.418346	0.042881	-0.280191	-0.344324	0.470810	-0.088628	-0.374243	0.485589	-0.212803	-0.381863	0.468811	-0.271411	-0.328508	0.478204	-0.386090	-0.368619	0.422129	-0.076108	-0.364315	0.421577	-0.408235	-0.331828	0.402871	-0.154570	-0.327088	0.403692	-0.331051	-0.339955	0.317755	-0.156539	-0.349573	0.181610	-0.321490	-0.328611	0.700551	-0.045236	-0.323098	0.703266	-0.433611	-0.229089	0.768330	-0.128669	-0.247220	0.655306	-0.140336	-0.226973	0.760257	-0.346654	-0.248406	0.641419	-0.340617	-0.446416	0.691495	-0.135837	-0.442236	0.603313	-0.137358	-0.436743	0.698383	-0.367563	-0.435332	0.608010	-0.363083	-0.459181	1.029421	-0.202936	-0.461503	1.026176	-0.299629	-0.253511	0.982983	-0.116635	-0.258202	0.977154	-0.370725	-0.468252	1.219968	-0.248602	-0.444043	1.467134	-0.259921	-0.292301	1.411036	-0.241228	-0.271874	1.364734	-0.238215	-0.354470	1.463809	-0.046652	-0.317009	1.446778	-0.445162	-0.418298	1.132131	-0.020676	-0.374380	1.114197	-0.463542	-0.330455	0.897442	0.033037	-0.305715	0.885023	-0.506812	-0.244325	1.586658	-0.178398	-0.233813	1.582364	-0.311564	-0.399654	1.541548	-0.258345	-0.385710	1.122416	-0.390636	-0.419702	1.130232	-0.102757	
41	0.4100	-0.249117	0.039386	-0.202582	-0.282260	0.027716	-0.114438	-0.294603	0.058314	-0.165318	-0.262426	0.041138	-0.280815	-0.286258	0.024250	-0.369287	-0.294199	0.053702	-0.315898	-0.461290	0.049592	-0.174143	-0.467353	0.047735	-0.318415	-0.407928	0.072360	-0.129836	-0.407118	0.069422	-0.356615	-0.391081	0.083977	-0.213409	-0.400459	0.086529	-0.272447	-0.408672	0.047479	-0.208148	-0.418366	0.042884	-0.280226	-0.344351	0.470805	-0.088617	-0.373579	0.485610	-0.212103	-0.381861	0.468811	-0.271401	-0.328525	0.478206	-0.386069	-0.368657	0.422113	-0.076100	-0.364341	0.421577	-0.408252	-0.331809	0.402871	-0.154533	-0.327073	0.403703	-0.331027	-0.339928	0.317749	-0.156551	-0.349564	0.181607	-0.321475	-0.328634	0.700550	-0.045212	-0.323120	0.703247	-0.433618	-0.229148	0.768301	-0.128653	-0.247261	0.655293	-0.140303	-0.226970	0.760236	-0.346671	-0.248455	0.641409	-0.340634	-0.446437	0.691504	-0.135856	-0.442264	0.603325	-0.137383	-0.436771	0.698401	-0.367529	-0.435346	0.608019	-0.363042	-0.459190	1.029424	-0.202930	-0.461510	1.026184	-0.299632	-0.253515	0.982963	-0.116628	-0.258201	0.977159	-0.370701	-0.468237	1.219985	-0.248576	-0.444003	1.467158	-0.259893	-0.292300	1.410973	-0.241229	-0.271895	1.364754	-0.238205	-0.354369	1.463851	-0.046612	-0.316949	1.446783	-0.445090	-0.418314	1.132167	-0.020835	-0.374363	1.114217	-0.463570	-0.330507	0.897453	0.032824	-0.305737	0.885008	-0.506817	-0.244173	1.586682	-0.178367	-0.233721	1.582317	-0.311545	-0.399574	1.541567	-0.258321	-0.385737	1.122450	-0.390656	-0.419671	1.130303	-0.102923	
42	0.4200	-0.249118	0.039389	-0.202588	-0.282251	0.027714	-0.114456	-0.294590	0.058277	-0.165341	-0.262415	0.041136	-0.280799	-0.286240	0.024229	-0.369276	-0.294205	0.053685	-0.315902	-0.461289	0.049592	-0.174158	-0.467380	0.047743	-0.318419	-0.407975	0.072387	-0.129825	-0.407099	0.069408	-0.356628	-0.391119	0.084002	-0.213415	-0.400457	0.086520	-0.272454	-0.408702	0.047482	-0.208131	-0.418313	0.042870	-0.280193	-0.344384	0.470813	-0.088604	-0.374242	0.485557	-0.212799	-0.381868	0.468793	-0.271409	-0.328511	0.478205	-0.386068	-0.368660	0.422111	-0.076085	-0.364336	0.421578	-0.408244	-0.331835	0.402865	-0.154533	-0.327080	0.403679	-0.331038	-0.339968	0.317736	-0.156506	-0.349575	0.181604	-0.321478	-0.328679	0.700536	-0.045189	-0.323176	0.703270	-0.433566	-0.229167	0.768285	-0.128640	-0.247280	0.655287	-0.140271	-0.226963	0.760256	-0.346643	-0.248456	0.641426	-0.340608	-0.446455	0.691501	-0.135877	-0.442281	0.603322	-0.137383	-0.436779	0.698405	-0.367484	-0.435352	0.608026	-0.363006	-0.459194	1.029433	-0.202929	-0.461517	1.026171	-0.299616	-0.253545	0.982940	-0.116618	-0.258156	0.977185	-0.370684	-0.468218	1.220009	-0.248581	-0.443957	1.467172	-0.259834	-0.292295	1.410990	-0.241183	-0.271884	1.364696	-0.238166	-0.354270	1.463913	-0.046570	-0.316902	1.446799	-0.445064	-0.418319	1.132212	-0.021099	-0.374355	1.114249	-0.463584	-0.330565	0.897469	0.032543	-0.305795	0.885008	-0.506826	-0.244061	1.586707	-0.178399	-0.233657	1.582292	-0.311536	-0.399500	1.541568	-0.258288	-0.385758	1.122469	-0.390662	-0.419610	1.130386	-0.103148	
43	0.4300	-0.249094	0.039384	-0.202578	-0.282249	0.027698	-0.114438	-0.294611	0.058278	-0.165324	-0.262406	0.041139	-0.280788	-0.286239	0.024255	-0.369291	-0.294200	0.053688	-0.315892	-0.461292	0.049594	-0.174140	-0.467372	0.047743	-0.318412	-0.407958	0.072403	-0.129854	-0.407094	0.069416	-0.356615	-0.391119	0.084017	-0.213428	-0.400480	0.086523	-0.272433	-0.408687	0.047470	-0.208130	-0.418334	0.042870	-0.280196	-0.344400	0.470810	-0.088587	-0.373592	0.485614	-0.212093	-0.381834	0.468802	-0.271391	-0.328501	0.478203	-0.386064	-0.368696	0.422131	-0.076094	-0.364330	0.421600	-0.408214	-0.331855	0.402872	-0.154532	-0.327085	0.403691	-0.331018	-0.339959	0.317730	-0.156527	-0.349557	0.181604	-0.321464	-0.328723	0.700539	-0.045195	-0.323190	0.703266	-0.433534	-0.229210	0.768270	-0.128592	-0.247290	0.655278	-0.140223	-0.227021	0.760227	-0.346681	-0.248455	0.641411	-0.340627	-0.446456	0.691509	-0.135870	-0.442313	0.603331	-0.137399	-0.436788	0.698414	-0.367420	-0.435369	0.608027	-0.362942	-0.459195	1.029430	-0.202903	-0.461506	1.026178	-0.299591	-0.253519	0.982918	-0.116611	-0.258170	0.977172	-0.370667	-0.468210	1.220029	-0.248553	-0.443934	1.467186	-0.259794	-0.292215	1.411016	-0.241110	-0.271819	1.364707	-0.238105	-0.354196	1.463962	-0.046525	-0.316750	1.446812	-0.444973	-0.418357	1.132243	-0.021305	-0.374375	1.114269	-0.463562	-0.330648	0.897463	0.032275	-0.305865	0.885019	-0.506813	-0.243899	1.586690	-0.178386	-0.233520	1.582224	-0.311505	-0.399414	1.541584	-0.258241	-0.385787	1.122475	-0.390663	-0.419536	1.130478	-0.103379	
44	0.4400	-0.249119	0.039385	-0.202579	-0.282275	0.027697	-0.114439	-0.294591	0.058293	-0.165319	-0.262418	0.041129	-0.280801	-0.286238	0.024252	-0.369283	-0.294212	0.053688	-0.315888	-0.461277	0.049582	-0.174150	-0.467381	0.047754	-0.318409	-0.407980	0.072398	-0.129826	-0.407107	0.069419	-0.356612	-0.391125	0.084024	-0.213410	-0.400461	0.086525	-0.272451	-0.408685	0.047471	-0.208116	-0.418309	0.042846	-0.280193	-0.344440	0.470817	-0.088583	-0.373592	0.485627	-0.212081	-0.381837	0.468798	-0.271381	-0.328517	0.478211	-0.386055	-0.368711	0.422142	-0.076090	-0.364346	0.421606	-0.408220	-0.331847	0.402879	-0.154536	-0.327067	0.403699	-0.331013	-0.339929	0.317726	-0.156489	-0.349582	0.181605	-0.321471	-0.328808	0.700520	-0.045170	-0.323230	0.703284	-0.433521	-0.229222	0.768261	-0.128546	-0.247309	0.655291	-0.140203	-0.226962	0.760246	-0.346697	-0.248475	0.641410	-0.340643	-0.446463	0.691499	-0.135888	-0.442310	0.603326	-0.137422	-0.436818	0.698416	-0.367378	-0.435371	0.608016	-0.362888	-0.459196	1.029428	-0.202891	-0.461496	1.026164	-0.299575	-0.253516	0.982911	-0.116577	-0.258193	0.977162	-0.370641	-0.468200	1.220043	-0.248533	-0.443862	1.467198	-0.259755	-0.292229	1.410984	-0.241070	-0.271725	1.364723	-0.238014	-0.354111	1.464017	-0.046474	-0.316700	1.446812	-0.444906	-0.418381	1.132285	-0.021525	-0.374423	1.114297	-0.463534	-0.330710	0.897458	0.031976	-0.305950	0.885016	-0.506800	-0.243842	1.586705	-0.178355	-0.233431	1.582157	-0.311475	-0.399349	1.541600	-0.258208	-0.385835	1.122491	-0.390654	-0.419465	1.130574	-0.103603	
